<svg width="59" height="50" viewBox="0 0 59 50" fill="none" xmlns="http://www.w3.org/2000/svg">
<g clip-path="url(#clip0_76_18)">
<path d="M59.8382 2.27655V48.8303H51.3253V0.343994L59.8382 2.27655Z" fill="#6FABE6"/>
<path d="M0.315552 2.27655V49.3684H8.81496V0.343994L0.315552 2.27655Z" fill="#6FABE6"/>
<path d="M8.81494 0.343994H51.3255V49.3684H8.81494V0.343994Z" fill="#82BCF4"/>
<path d="M21.5775 34.2807H30.0769V49.3684C30.0769 49.3684 27.6595 49.3684 25.9999 49.3684C24.3403 49.3684 21.5775 49.3684 21.5775 49.3684V34.2807Z" fill="#B2E5FB"/>
<path d="M30.0769 34.2807H38.5763V48.8303H30.0769V34.2807Z" fill="#9FDEFA"/>
<path d="M13.0781 4.22137H18.3936V10.0437H13.0781V4.22137Z" fill="#B2E5FB"/>
<path d="M22.6434 4.22128H27.9589V10.0436H22.6434V4.22128Z" fill="#B2E5FB"/>
<path d="M32.2086 4.22128H37.5241V10.0436H32.2086V4.22128Z" fill="#B2E5FB"/>
<path d="M41.7739 4.22128H47.0894V10.0436H41.7739V4.22128Z" fill="#B2E5FB"/>
<path d="M13.0781 13.9211H18.3936V19.7434H13.0781V13.9211Z" fill="#B2E5FB"/>
<path d="M22.6434 13.9211H27.9589V19.7434H22.6434V13.9211Z" fill="#B2E5FB"/>
<path d="M32.2086 13.9211H37.5241V19.7434H32.2086V13.9211Z" fill="#B2E5FB"/>
<path d="M41.7739 13.9211H47.0894V19.7434H41.7739V13.9211Z" fill="#B2E5FB"/>
<path d="M13.0781 23.6083H18.3936V29.4306H13.0781V23.6083Z" fill="#B2E5FB"/>
<path d="M22.6434 23.6083H27.9589V29.4306H22.6434V23.6083Z" fill="#B2E5FB"/>
<path d="M32.2086 23.6083H37.5241V29.4306H32.2086V23.6083Z" fill="#B2E5FB"/>
<path d="M41.7739 23.6083H47.0894V29.4306H41.7739V23.6083Z" fill="#B2E5FB"/>
<path d="M26.8931 43.0079C26.2995 43.0079 25.8273 42.5771 25.8273 42.0355V41.0631C25.8273 40.5215 26.286 40.0906 26.8796 40.0783C27.4732 40.0783 27.9454 40.4969 27.9589 41.0385V41.0631V42.0355C27.9454 42.5771 27.4732 43.0079 26.8931 43.0079Z" fill="#606161"/>
<path d="M33.2609 43.008C32.6673 43.008 32.1951 42.5772 32.1951 42.0356V41.0632C32.1951 40.5215 32.6538 40.0907 33.2474 40.0784C33.841 40.0661 34.3132 40.4969 34.3267 41.0385V41.0632V42.0356C34.3267 42.5772 33.8545 43.008 33.2609 43.008Z" fill="#606161"/>
<path d="M41.8143 35.2531H18.3802C17.7866 35.2531 17.3279 34.81 17.3279 34.2684C17.3279 33.7391 17.8001 33.3205 18.3802 33.3082H41.8143C42.4079 33.3082 42.8801 33.7267 42.8936 34.2684C42.9071 34.81 42.4349 35.2408 41.8413 35.2531C41.8413 35.2531 41.8278 35.2531 41.8143 35.2531Z" fill="#425B72"/>
<path d="M8.98482 41.0631C11.3053 40.9647 13.1806 34.49 13.1806 31.6712C13.1806 28.8277 11.2783 26.5259 8.93086 26.5259C6.5834 26.5259 4.68115 28.8277 4.68115 31.6712C4.68115 34.5146 6.5834 41.0755 8.93086 41.0755C8.95784 41.0631 8.97133 41.0631 8.98482 41.0631Z" fill="#B5E08C"/>
<path d="M8.7486 49.5023C8.28293 49.5023 7.89307 49.0855 7.89307 48.5735V36.3804C7.89307 35.8565 8.28293 35.4517 8.75943 35.4517C9.2251 35.4517 9.59331 35.8684 9.60414 36.3804V48.5616C9.60414 49.0736 9.2251 49.5023 8.7486 49.5023Z" fill="#F29B75"/>
<path d="M59.8382 2.27655V48.8303H51.3253V0.343994L59.8382 2.27655Z" fill="#4C97E0"/>
<path d="M30.0769 0.343994H51.3254V49.3684H30.0769V0.343994Z" fill="#5CA8F1"/>
<path d="M30.0769 34.2807H38.5763V49.3684H30.0769V34.2807Z" fill="#78D1F8"/>
<path d="M32.2085 4.22137H37.524V10.0437H32.2085V4.22137Z" fill="#8BD8F9"/>
<path d="M41.7737 4.22137H47.0892V10.0437H41.7737V4.22137Z" fill="#8BD8F9"/>
<path d="M32.2085 13.9212H37.524V19.7435H32.2085V13.9212Z" fill="#8BD8F9"/>
<path d="M41.7737 13.9212H47.0892V19.7435H41.7737V13.9212Z" fill="#8BD8F9"/>
<path d="M32.2085 23.6086H37.524V29.4309H32.2085V23.6086Z" fill="#8BD8F9"/>
<path d="M41.7737 23.6086H47.0892V29.4309H41.7737V23.6086Z" fill="#8BD8F9"/>
<path d="M33.2609 43.008C32.6673 43.008 32.1951 42.5772 32.1951 42.0356V41.0632C32.1951 40.5215 32.6538 40.0907 33.2474 40.0784C33.841 40.0661 34.3132 40.4969 34.3267 41.0385V41.0632V42.0356C34.3267 42.5772 33.8545 43.008 33.2609 43.008Z" fill="#4C4C4C"/>
<path d="M42.88 34.2807C42.88 34.81 42.4078 35.2531 41.8142 35.2531H30.0769V33.3082H41.8142C42.4078 33.3082 42.88 33.7514 42.88 34.2807Z" fill="#334658"/>
<path d="M51.2769 41.0631C53.5974 40.9647 55.4727 34.49 55.4727 31.6712C55.4727 28.8277 53.5704 26.5259 51.223 26.5259C48.8755 26.5259 46.9733 28.8277 46.9733 31.6712C46.9733 34.5146 48.8755 41.0755 51.223 41.0755C51.2365 41.0631 51.25 41.0631 51.2769 41.0631Z" fill="#A0D76C"/>
<path d="M51.4051 49.5023C50.9394 49.5023 50.5496 49.0855 50.5496 48.5735V36.3804C50.5496 35.8565 50.9394 35.4517 51.4159 35.4517C51.8816 35.4517 52.2498 35.8684 52.2606 36.3804V48.5616C52.2606 49.0736 51.8708 49.5023 51.4051 49.5023Z" fill="#EE8050"/>
</g>
<defs>
<clipPath id="clip0_76_18">
<rect width="59" height="50" fill="white"/>
</clipPath>
</defs>
</svg>
